<svg version="1.1" x="0px" y="0px" width="164.93333435059" height="164.93333435059" xmlns="http://www.w3.org/2000/svg" xmlns:xlink="http://www.w3.org/1999/xlink" xmlns:a="http://ns.adobe.com/AdobeSVGViewerExtensions/3.0/" xml:space="preserve">
    <g transform="translate(0 0)">
        <g transform="translate(0 0) scale(2.5238457375096 2.5238457375096) rotate(0 32.675003051758 32.675003051758)">
            <linearGradient id="SVGID_1" x1="0%" y1="0%" x2="100%" y2="0%" gradientTransform="rotate(90)">
                <stop offset="0%" stop-color="#74bf44" stop-opacity="1"></stop>
                <stop offset="100%" stop-color="#005730" stop-opacity="1"></stop>
            </linearGradient>
            <path d="M65.31 31.94C64.923 14.235 50.456 0 32.654 0 14.622 0 0 14.623 0 32.663c0 15.063 10.199 27.733 24.07 31.501.066.015.126.045.193.06 0 0 0-.008-.008-.008a32.75 32.75 0 005.16.938c.142.015.275.022.417.037.126.015.261.022.387.03.015 0 .037 0 .053.007.23.022.469.037.699.045.06.008.112.008.164.008.506.021 1.013.037 1.519.037h.03a31.33 31.33 0 003.246-.171l.908-.111.477-.067a32.2 32.2 0 005.896-1.407c.008 0 .015-.007.022-.007a41.561 41.561 0 001.891-.715c.03-.008.053-.022.082-.037.008 0 .022 0 .03-.008.201-.082.395-.171.588-.261.097-.037.193-.081.283-.126.29-.135.573-.269.863-.41.06-.021.112-.044.171-.074a32.562 32.562 0 004.096-2.412 33.622 33.622 0 003.335-2.65 31.93 31.93 0 002.829-2.941l.016.016c.179-.216.364-.433.543-.648a30.153 30.153 0 001.534-2.025c-8.153-8.167-19.321-11.822-29.938-13.244v-6.932h.849l-4.072-4.98H18.44l-4.937 4.98h.782v6.202c-.976.023-1.914.061-2.829.112l-.09-1.861c.648-.082 1.14-.536 1.14-2.003 0-1.668-.633-4.028-1.407-4.028-.782 0-1.415 2.36-1.415 4.028 0 1.467.492 1.914 1.14 2.003l-.09 1.905c-.968.053-1.891.127-2.776.201l-.067-1.496c.551-.074.968-.454.968-1.705 0-1.415-.536-3.417-1.199-3.417-.662 0-1.198 2.003-1.198 3.417 0 1.251.417 1.631.968 1.705L7.356 37.7c-1.311.119-2.517.253-3.604.387a30.292 30.292 0 01-.491-5.04c0-.082-.008-.164-.008-.246v-.134c0-.729.03-1.444.082-2.159.008-.037.008-.067.008-.104.022-.283.052-.559.082-.834.021-.224.044-.439.066-.663.015-.089.022-.171.037-.261 1.475-11.421 9.263-23.4 28.471-23.4 13.245 0 24.376 8.688 29.104 19.209C55.779 14.421 42.766 7.066 30.622 7.564c-4.46.179-8.585 1.244-12.203 3 8.555-3.194 9.91 9.887 19.499 14.928 10.395 5.465 24.949 3.589 26.647 14.139.483-2.248.752-4.579.752-6.969 0-.238 0-.483-.007-.722zM55.05 51.708a27.864 27.864 0 01-2.695 2.77C43.033 45.051 31.598 40.48 31.598 40.48c11.562 2.74 18.97 7.371 23.452 11.228zM21.397 31.084l4.452-4.489 2.934 3.581v7.743a67.01 67.01 0 00-2.04-.23v-5.822h-2.732v5.592c-.879-.06-1.75-.104-2.613-.142v-6.233zm27.816 25.873a27.975 27.975 0 01-3.998 2.293C35.99 47.412 21.583 40.704 21.107 40.488c14.846 3.573 23.661 11.316 28.106 16.469zm-7.922 3.819c-1.75.536-3.566.916-5.436 1.117-6.305-11.049-23.094-21.062-23.667-21.405 16.871 6.767 25.388 15.441 29.103 20.288zm-12.218 1.072a29.189 29.189 0 01-7.17-1.816C16.93 52.385 8.219 43.674 4.549 40.48c13.23 6.351 21.011 16.037 24.524 21.368z" fill="url(#SVGID_1)"></path>
        </g>
    </g>
</svg>